<mxfile host="app.diagrams.net" modified="2020-04-17T12:32:18.573Z" agent="5.0 (Macintosh; Intel Mac OS X 10_13_6) AppleWebKit/605.1.15 (KHTML, like Gecko) Version/13.1 Safari/605.1.15" etag="_JWPedAPOYpyDAz0dsWS" version="12.9.12" type="github">
  <diagram id="TiG-RyfLDoOO_gLj5VNG" name="Page-1">
    <mxGraphModel dx="724" dy="537" grid="1" gridSize="10" guides="1" tooltips="1" connect="1" arrows="1" fold="1" page="1" pageScale="1" pageWidth="827" pageHeight="1169" math="0" shadow="0">
      <root>
        <mxCell id="0" />
        <mxCell id="1" parent="0" />
        <mxCell id="wGxKlhJpGhgjQtdHp2QR-4" value="" style="edgeStyle=orthogonalEdgeStyle;rounded=0;orthogonalLoop=1;jettySize=auto;html=1;" edge="1" parent="1" source="wGxKlhJpGhgjQtdHp2QR-2" target="wGxKlhJpGhgjQtdHp2QR-3">
          <mxGeometry relative="1" as="geometry" />
        </mxCell>
        <mxCell id="wGxKlhJpGhgjQtdHp2QR-2" value="Power data" style="rounded=1;whiteSpace=wrap;html=1;shadow=1;fillColor=#b1ddf0;strokeColor=#10739e;" vertex="1" parent="1">
          <mxGeometry x="90" y="190" width="80" height="40" as="geometry" />
        </mxCell>
        <mxCell id="wGxKlhJpGhgjQtdHp2QR-6" value="" style="edgeStyle=orthogonalEdgeStyle;rounded=0;orthogonalLoop=1;jettySize=auto;html=1;entryX=0.5;entryY=0;entryDx=0;entryDy=0;" edge="1" parent="1" source="wGxKlhJpGhgjQtdHp2QR-3" target="wGxKlhJpGhgjQtdHp2QR-7">
          <mxGeometry relative="1" as="geometry">
            <mxPoint x="305" y="310" as="targetPoint" />
          </mxGeometry>
        </mxCell>
        <mxCell id="wGxKlhJpGhgjQtdHp2QR-3" value="Power data with machine states" style="rounded=1;whiteSpace=wrap;html=1;shadow=1;fillColor=#d0cee2;strokeColor=#56517e;" vertex="1" parent="1">
          <mxGeometry x="270" y="190" width="110" height="40" as="geometry" />
        </mxCell>
        <mxCell id="wGxKlhJpGhgjQtdHp2QR-12" style="edgeStyle=orthogonalEdgeStyle;rounded=0;orthogonalLoop=1;jettySize=auto;html=1;exitX=0.5;exitY=1;exitDx=0;exitDy=0;entryX=0.5;entryY=0;entryDx=0;entryDy=0;" edge="1" parent="1" source="wGxKlhJpGhgjQtdHp2QR-7" target="wGxKlhJpGhgjQtdHp2QR-10">
          <mxGeometry relative="1" as="geometry">
            <Array as="points">
              <mxPoint x="325" y="360" />
              <mxPoint x="210" y="360" />
            </Array>
          </mxGeometry>
        </mxCell>
        <mxCell id="wGxKlhJpGhgjQtdHp2QR-7" value="Classifier Model" style="rhombus;whiteSpace=wrap;html=1;shadow=1;fillColor=#bac8d3;strokeColor=#23445d;" vertex="1" parent="1">
          <mxGeometry x="285" y="270" width="80" height="80" as="geometry" />
        </mxCell>
        <mxCell id="wGxKlhJpGhgjQtdHp2QR-11" style="edgeStyle=orthogonalEdgeStyle;rounded=0;orthogonalLoop=1;jettySize=auto;html=1;exitX=0.5;exitY=1;exitDx=0;exitDy=0;entryX=0.5;entryY=0;entryDx=0;entryDy=0;" edge="1" parent="1" source="wGxKlhJpGhgjQtdHp2QR-8" target="wGxKlhJpGhgjQtdHp2QR-10">
          <mxGeometry relative="1" as="geometry" />
        </mxCell>
        <mxCell id="wGxKlhJpGhgjQtdHp2QR-8" value="Power data&lt;br&gt;On-line" style="rounded=1;whiteSpace=wrap;html=1;shadow=1;fillColor=#b1ddf0;strokeColor=#10739e;" vertex="1" parent="1">
          <mxGeometry x="90" y="300" width="80" height="40" as="geometry" />
        </mxCell>
        <mxCell id="wGxKlhJpGhgjQtdHp2QR-10" value="Power data with machine states" style="rounded=1;whiteSpace=wrap;html=1;shadow=1;fillColor=#d0cee2;strokeColor=#56517e;" vertex="1" parent="1">
          <mxGeometry x="155" y="380" width="110" height="40" as="geometry" />
        </mxCell>
        <mxCell id="wGxKlhJpGhgjQtdHp2QR-13" value="Clustering" style="text;html=1;strokeColor=none;fillColor=none;align=center;verticalAlign=middle;whiteSpace=wrap;rounded=0;shadow=1;" vertex="1" parent="1">
          <mxGeometry x="200" y="180" width="60" height="20" as="geometry" />
        </mxCell>
        <mxCell id="wGxKlhJpGhgjQtdHp2QR-14" value="Classification" style="text;html=1;strokeColor=none;fillColor=none;align=center;verticalAlign=middle;whiteSpace=wrap;rounded=0;shadow=1;" vertex="1" parent="1">
          <mxGeometry x="365" y="250" width="70" height="20" as="geometry" />
        </mxCell>
        <mxCell id="wGxKlhJpGhgjQtdHp2QR-15" value="1" style="ellipse;whiteSpace=wrap;html=1;aspect=fixed;shadow=1;" vertex="1" parent="1">
          <mxGeometry x="180" y="180" width="20" height="20" as="geometry" />
        </mxCell>
        <mxCell id="wGxKlhJpGhgjQtdHp2QR-16" value="2" style="ellipse;whiteSpace=wrap;html=1;aspect=fixed;shadow=1;" vertex="1" parent="1">
          <mxGeometry x="340" y="250" width="20" height="20" as="geometry" />
        </mxCell>
      </root>
    </mxGraphModel>
  </diagram>
</mxfile>
